<svg width="12" height="14" viewBox="0 0 12 14" fill="none" xmlns="http://www.w3.org/2000/svg">
<path d="M8.60896 13.065L8.60894 13.065C8.53302 13.1789 8.42247 13.2653 8.29363 13.3115C8.1648 13.3576 8.02453 13.3611 7.89358 13.3213C7.76263 13.2816 7.64795 13.2007 7.5665 13.0908C7.48513 12.9809 7.44125 12.8478 7.44133 12.711C7.44133 12.7109 7.44134 12.7108 7.44134 12.7107M8.60896 13.065L8.41602 1.91614C8.41602 1.82667 8.38047 1.74086 8.31721 1.6776C8.25395 1.61434 8.16814 1.5788 8.07868 1.5788C7.98921 1.5788 7.9034 1.61434 7.84014 1.6776C7.77688 1.74086 7.74133 1.82667 7.74133 1.91614V12.711L7.44134 12.7107M8.60896 13.065L11.3057 9.01994C11.3535 8.9514 11.3873 8.8741 11.4053 8.79246C11.4237 8.70918 11.4251 8.62307 11.4095 8.53923C11.394 8.45539 11.3618 8.37552 11.3148 8.30435C11.2679 8.23318 11.2071 8.17216 11.1361 8.1249C11.0651 8.07764 10.9854 8.0451 10.9016 8.02921C10.8179 8.01333 10.7317 8.01441 10.6484 8.0324C10.565 8.0504 10.4862 8.08493 10.4164 8.13397C10.348 8.182 10.2898 8.243 10.245 8.31347L8.71602 10.607M8.60896 13.065L8.71602 10.607M7.44134 12.7107L7.44133 1.91614C7.44133 1.7471 7.50848 1.58499 7.62801 1.46547C7.74753 1.34594 7.90964 1.2788 8.07868 1.2788C8.24771 1.2788 8.40982 1.34594 8.52934 1.46547C8.64887 1.58499 8.71602 1.7471 8.71602 1.91614V10.607M7.44134 12.7107L8.71602 10.607M1.85725 6.32464L1.85735 6.32471L1.86214 6.31752L3.39324 4.02087V12.711C3.39324 12.8801 3.46039 13.0422 3.57992 13.1617C3.69944 13.2812 3.86155 13.3484 4.03059 13.3484C4.19962 13.3484 4.36173 13.2812 4.48125 13.1617C4.60078 13.0422 4.66793 12.8801 4.66793 12.711V1.91614L4.66793 1.9159C4.66782 1.77916 4.62374 1.64608 4.54219 1.53632C4.46064 1.42655 4.34596 1.34592 4.21507 1.30634C4.08418 1.26676 3.94403 1.27033 3.81533 1.31651C3.68662 1.36269 3.57618 1.44905 3.50032 1.56282L3.5003 1.56284L0.801576 5.61093L0.801465 5.61086L0.796716 5.61846C0.708911 5.7591 0.679366 5.92842 0.714352 6.09048C0.749338 6.25255 0.846101 6.3946 0.984103 6.48649C1.12211 6.57838 1.29049 6.61288 1.4535 6.58266C1.61652 6.55244 1.76135 6.45989 1.85725 6.32464Z" fill="white" stroke="white" stroke-width="0.6"/>
</svg>
