<svg width="5" height="15" viewBox="0 0 5 15" fill="none" xmlns="http://www.w3.org/2000/svg">
<path d="M4.19094 8.71736C4.19094 8.41583 4.00434 8.17548 3.77029 8.02232C3.53405 7.86773 3.22244 7.78027 2.89094 7.78027C2.55945 7.78027 2.24784 7.86773 2.01159 8.02232C1.77754 8.17548 1.59094 8.41583 1.59094 8.71736V12.8399C1.59094 13.1414 1.77754 13.3817 2.01159 13.5349C2.24784 13.6895 2.55945 13.7769 2.89094 13.7769C3.22244 13.7769 3.53405 13.6895 3.77029 13.5349C4.00434 13.3817 4.19094 13.1414 4.19094 12.8399V8.71736Z" fill="white" stroke="white" stroke-width="0.5"/>
<path d="M2.70459 3.91156C3.53302 3.91156 4.20459 3.23999 4.20459 2.41156C4.20459 1.58313 3.53302 0.91156 2.70459 0.91156C1.87616 0.91156 1.20459 1.58313 1.20459 2.41156C1.20459 3.23999 1.87616 3.91156 2.70459 3.91156Z" fill="white" stroke="white" stroke-width="0.5"/>
</svg>
